<svg xmlns="http://www.w3.org/2000/svg" width="1440" height="508" viewBox="0 0 1440 508">
  <g id="Group_3241" data-name="Group 3241" transform="translate(-137.739 -238.792)" opacity="0.394">
    <path id="Path_2485" data-name="Path 2485" d="M864.665,50.539a11.528,11.528,0,1,1-16.014,3.05A11.527,11.527,0,0,1,864.665,50.539Z" transform="translate(473.609 217.392)" fill="#ffcd6e"/>
    <path id="Path_2486" data-name="Path 2486" d="M236.746,39.516a7.63,7.63,0,1,1-10.6,2.019A7.63,7.63,0,0,1,236.746,39.516Z" transform="translate(-87.086 444.999)" fill="#b0d8b1"/>
    <path id="Path_2487" data-name="Path 2487" d="M602.578,383.265a17.044,17.044,0,1,1-23.678,4.509A17.043,17.043,0,0,1,602.578,383.265Z" transform="translate(-230.966 76.723)" fill="#ccd7e9"/>
    <path id="Path_2493" data-name="Path 2493" d="M602.578,383.265a17.044,17.044,0,1,1-23.678,4.509A17.043,17.043,0,0,1,602.578,383.265Z" transform="translate(955.873 235.909)" fill="#edf2f0"/>
    <path id="Path_2488" data-name="Path 2488" d="M576.4,648.444A8.522,8.522,0,1,1,564.56,650.7,8.522,8.522,0,0,1,576.4,648.444Z" transform="translate(247.11 82.778)" fill="#abd8e2"/>
    <g id="Group_3232" data-name="Group 3232" transform="translate(451.962 251.51)">
      <g id="Group_3089" data-name="Group 3089" transform="translate(0 0)">
        <g id="Group_3088" data-name="Group 3088">
          <path id="Path_2408" data-name="Path 2408" d="M404.84,64.64h-2.815V61.825a.563.563,0,0,0-.563-.563h-4.5a.563.563,0,0,0-.563.563V64.64H393.58a.563.563,0,0,0-.563.563v4.5a.563.563,0,0,0,.563.563h2.815v2.815a.563.563,0,0,0,.563.563h4.5a.562.562,0,0,0,.563-.563V70.27h2.815a.562.562,0,0,0,.563-.563V65.2A.563.563,0,0,0,404.84,64.64Zm-.563,4.5h-2.815a.563.563,0,0,0-.563.563v2.815h-3.378V69.707a.563.563,0,0,0-.563-.563h-2.815V65.766h2.815a.563.563,0,0,0,.563-.563V62.388H400.9V65.2a.563.563,0,0,0,.563.563h2.815Z" transform="translate(-385.698 -53.943)" fill="#5f999f"/>
          <path id="Path_2409" data-name="Path 2409" d="M409.869,58.274H404.1V56.662a2.353,2.353,0,0,0-2.371-2.329h-4.466a2.18,2.18,0,0,0-2.171,2.329v1.612H389.33a3.246,3.246,0,0,0-3.242,3.243V74.173a3.246,3.246,0,0,0,3.242,3.242h20.54a3.245,3.245,0,0,0,3.242-3.242V61.516A3.245,3.245,0,0,0,409.869,58.274Zm-13.648-1.612a1.078,1.078,0,0,1,1.045-1.2h4.466a1.226,1.226,0,0,1,1.245,1.2v1.612h-6.756Zm15.763,17.509a2.118,2.118,0,0,1-2.116,2.118H389.33a2.117,2.117,0,0,1-2.116-2.116V61.516A2.118,2.118,0,0,1,389.33,59.4h20.54a2.117,2.117,0,0,1,2.116,2.117V74.171Z" transform="translate(-386.088 -54.333)" fill="#5f999f"/>
        </g>
      </g>
    </g>
    <g id="Group_3234" data-name="Group 3234" transform="translate(1025.155 670.602)">
      <g id="Group_3102" data-name="Group 3102" transform="translate(10.41 10.182)">
        <g id="Group_3101" data-name="Group 3101">
          <path id="Path_2421" data-name="Path 2421" d="M694.268,558.379a3.372,3.372,0,1,0,3.373,3.372A3.376,3.376,0,0,0,694.268,558.379Zm0,5.468a2.1,2.1,0,1,1,2.1-2.1A2.1,2.1,0,0,1,694.268,563.847Z" transform="translate(-690.896 -558.379)" fill="#726194"/>
        </g>
      </g>
      <g id="Group_3104" data-name="Group 3104">
        <g id="Group_3103" data-name="Group 3103">
          <path id="Path_2422" data-name="Path 2422" d="M708.8,558.075a6.355,6.355,0,0,0-.824-4.524,2.267,2.267,0,0,0-4.04-2.048,14.224,14.224,0,0,0-7.461,2.242c-4.623-2.672-8.809-2.993-10.98-.82a5.37,5.37,0,0,0-1.43,3.925,2.268,2.268,0,0,0,.9,4.351h.039a20.242,20.242,0,0,0,1.316,2.7c-2.672,4.624-2.993,8.809-.82,10.981a5.359,5.359,0,0,0,3.915,1.432,14.694,14.694,0,0,0,7.065-2.252,14.7,14.7,0,0,0,7.065,2.252,5.36,5.36,0,0,0,3.916-1.432c2.172-2.172,1.85-6.359-.822-10.981A16.461,16.461,0,0,0,708.8,558.075Zm-2.891-6.449a.992.992,0,1,1-.992.992A.993.993,0,0,1,705.9,551.626Zm-2.262,1.143a2.266,2.266,0,0,0,3.448,1.782,5.417,5.417,0,0,1,.441,3.352,14.48,14.48,0,0,1-1.67,4.76,29.709,29.709,0,0,0-8.148-8.148A12.669,12.669,0,0,1,703.641,552.769Zm-18.687,7.156a.992.992,0,1,1,.992-.992A.993.993,0,0,1,684.955,559.925Zm1.261.893a2.268,2.268,0,0,0-.879-4.12,4.067,4.067,0,0,1,1.055-2.871c1.632-1.631,5.036-1.344,8.835.689a29.662,29.662,0,0,0-8.148,8.148A18.7,18.7,0,0,1,686.215,560.818Zm.176,13.165c-1.632-1.631-1.344-5.035.689-8.835a29.677,29.677,0,0,0,8.147,8.148C691.427,575.328,688.024,575.615,686.391,573.983Zm5.265-5.264A27.053,27.053,0,0,1,687.8,563.9a28.215,28.215,0,0,1,8.672-8.672,28.18,28.18,0,0,1,8.672,8.672,28.168,28.168,0,0,1-8.672,8.673A27.037,27.037,0,0,1,691.657,568.718Zm14.892,5.264c-1.632,1.632-5.036,1.346-8.837-.687a29.7,29.7,0,0,0,8.148-8.148C707.893,568.948,708.18,572.352,706.549,573.983Z" transform="translate(-682.687 -550.35)" fill="#726194"/>
        </g>
      </g>
    </g>
    <g id="Group_3235" data-name="Group 3235" transform="translate(244.988 576.173)">
      <path id="Path_2423" data-name="Path 2423" d="M94.3,526.134a11.3,11.3,0,1,0,4.239-.825A11.2,11.2,0,0,0,94.3,526.134Zm-4.211,15.182a7.757,7.757,0,0,1-1.485-1.195,10.624,10.624,0,0,1-.343-5.918,9.384,9.384,0,0,1,.722-1.2c.083-.118.161-.242.25-.356l2.542,1.5v.064a19.568,19.568,0,0,0,.409,4.061l0,.016-1.972,3.091C90.177,541.366,90.134,541.342,90.093,541.316Zm7.558,5.225a9.714,9.714,0,0,0,1.353.567,10.564,10.564,0,0,1-5.715-1.385l4.262.759C97.584,546.5,97.616,546.524,97.651,546.542Zm-.016-.769-5.029-.9a15.666,15.666,0,0,1-1.572-2.277c-.116-.206-.245-.406-.343-.62l1.97-3.089.147.038a32.563,32.563,0,0,0,3.749.747c.074.01.135.02.188.025l2.361,4.082c-.41.576-.824,1.148-1.247,1.715C97.789,545.592,97.714,545.683,97.635,545.773ZM106,544.034a10.542,10.542,0,0,1-1.27,1.084,9.657,9.657,0,0,0-.381-1.732l2.519-4.7a11.786,11.786,0,0,0,1.985-1.119.926.926,0,0,0,.2-.192A10.5,10.5,0,0,1,106,544.034Zm-.111-6.094q.139.268.279.542l-2.434,4.539-.041.008a22.264,22.264,0,0,1-3.978.382l-2.428-4.2q.566-1.052,1.124-2.111c.251-.478.5-.959.747-1.44l5.026-.517A28.051,28.051,0,0,1,105.891,537.94Zm-1.02-5.384c-.238.63-.493,1.253-.747,1.877l-4.9.5c-.059-.077-.119-.153-.183-.226q-.868-.981-1.742-1.957l.016-.018-.7-.7,1.363-4.1a1.9,1.9,0,0,1,.284-.056c.741-.075,1.483-.161,2.226-.2a10.853,10.853,0,0,1,1.375-.007l3.372,3.8C105.12,531.829,105.006,532.2,104.871,532.556ZM106,529.114a10.494,10.494,0,0,1,2.16,3.127,10.684,10.684,0,0,0-2.012-1.08c-.11-.045-.223-.086-.338-.126l-3.319-3.741a4.408,4.408,0,0,0,.04-.486A10.489,10.489,0,0,1,106,529.114Zm-10.838-2.5c.014.01.019.018.027.02a8.417,8.417,0,0,1,2.1,1.106l-1.273,3.834-.019.006c-.261.108-.526.2-.783.321a22.438,22.438,0,0,0-3.058,1.65l-2.513-1.486a.754.754,0,0,1,.044-.229c.168-.45.334-.9.525-1.343a10.021,10.021,0,0,1,.5-.987c.119-.132.243-.263.371-.391a10.508,10.508,0,0,1,4.1-2.541C95.18,526.585,95.171,526.6,95.164,526.611Z" transform="translate(-87.278 -525.309)" fill="#4a6385"/>
    </g>
    <g id="Group_3236" data-name="Group 3236" transform="translate(557.099 576.247)">
      <g id="Group_3108" data-name="Group 3108" transform="translate(0)">
        <g id="Group_3107" data-name="Group 3107">
          <path id="Path_2424" data-name="Path 2424" d="M281.615,628a6.827,6.827,0,0,0-.859-2.5c.152-2.486-.341-4.359-1.466-5.567a4.149,4.149,0,0,0-2.421-1.283,2.986,2.986,0,0,0-2.962-1.922,3.913,3.913,0,0,0-5.29-.568,3.913,3.913,0,0,0-5.29.568,2.984,2.984,0,0,0-2.962,1.922,4.142,4.142,0,0,0-2.421,1.283c-1.125,1.208-1.618,3.081-1.466,5.567a6.848,6.848,0,0,0-.859,2.5,4.954,4.954,0,0,0,2.208,4.814,4.8,4.8,0,0,0,2.3,5.169,3.25,3.25,0,0,0,.311,2.222,2.68,2.68,0,0,0,1.818,1.2c.424.653,1.881,2.673,3.7,2.673h.035a3.311,3.311,0,0,0,2.626-1.715,3.311,3.311,0,0,0,2.626,1.715c1.833.026,3.308-2.016,3.734-2.673a2.68,2.68,0,0,0,1.819-1.2,3.25,3.25,0,0,0,.311-2.222,4.807,4.807,0,0,0,2.3-5.169A4.952,4.952,0,0,0,281.615,628Zm-3.037,4.181a.5.5,0,0,0-.207.534c.034.135.8,3.322-2.037,4.536a.5.5,0,0,0-.276.615,2.553,2.553,0,0,1-.114,1.827,1.831,1.831,0,0,1-1.355.779.5.5,0,0,0-.349.24c-.389.663-1.675,2.375-2.962,2.375h-.022c-.774-.012-1.511-.651-2.193-1.9a.528.528,0,0,0-.455-.259.5.5,0,0,0-.437.259c-.68,1.247-1.419,1.886-2.193,1.9-1.289.021-2.593-1.708-2.984-2.375a.5.5,0,0,0-.348-.24,1.836,1.836,0,0,1-1.353-.775,2.538,2.538,0,0,1-.116-1.832.5.5,0,0,0-.277-.615c-2.817-1.207-2.07-4.4-2.038-4.536a.5.5,0,0,0-.206-.534c-3.712-2.475-1.358-6.129-1.257-6.284a.5.5,0,0,0,.082-.311c-.163-2.269.233-3.939,1.177-4.964a3.054,3.054,0,0,1,2.046-1.012.5.5,0,0,0,.462-.313c.557-1.391,1.451-1.59,1.917-1.59a1.313,1.313,0,0,1,.289.029.5.5,0,0,0,.473-.131,3.262,3.262,0,0,1,3.093-1.156,3.075,3.075,0,0,1,1.317.692.5.5,0,0,0,.352.146h.019a.5.5,0,0,0,.352-.146,3.063,3.063,0,0,1,1.279-.682,3.246,3.246,0,0,1,3.131,1.147.5.5,0,0,0,.468.132c.149-.034,1.476-.28,2.211,1.56a.5.5,0,0,0,.459.313,3.055,3.055,0,0,1,2.049,1.012c.942,1.026,1.338,2.7,1.177,4.964a.5.5,0,0,0,.082.312,5.745,5.745,0,0,1,.792,2.225A4.056,4.056,0,0,1,278.579,632.183Z" transform="translate(-255.579 -615.387)" fill="#4d8f95"/>
        </g>
      </g>
      <g id="Group_3110" data-name="Group 3110" transform="translate(17.646 3.232)">
        <g id="Group_3109" data-name="Group 3109">
          <path id="Path_2425" data-name="Path 2425" d="M276.044,618.786a.5.5,0,0,0-.63-.314,4.135,4.135,0,0,0-3.13,3.725.5.5,0,0,0,.494.5h0a.5.5,0,0,0,.5-.493,3.18,3.18,0,0,1,2.449-2.785A.5.5,0,0,0,276.044,618.786Z" transform="translate(-272.285 -618.447)" fill="#4d8f95"/>
        </g>
      </g>
      <g id="Group_3112" data-name="Group 3112" transform="translate(18.111 15.318)">
        <g id="Group_3111" data-name="Group 3111">
          <path id="Path_2426" data-name="Path 2426" d="M278.267,631.48a.5.5,0,0,0-.7-.094,2.506,2.506,0,0,1-2.178.655c-1.129-.325-1.7-1.812-1.7-1.827a.5.5,0,0,0-.933.345A4.194,4.194,0,0,0,275.111,633a2.629,2.629,0,0,0,.734.1,3.891,3.891,0,0,0,2.328-.923A.5.5,0,0,0,278.267,631.48Z" transform="translate(-272.725 -629.889)" fill="#4d8f95"/>
        </g>
      </g>
      <g id="Group_3114" data-name="Group 3114" transform="translate(14.392 17.178)">
        <g id="Group_3113" data-name="Group 3113">
          <path id="Path_2427" data-name="Path 2427" d="M270.054,631.8a.5.5,0,1,0-.7.7,3.669,3.669,0,0,1,1.263,3.25.5.5,0,0,0,.362.6.521.521,0,0,0,.12.015.5.5,0,0,0,.483-.377A4.619,4.619,0,0,0,270.054,631.8Z" transform="translate(-269.205 -631.65)" fill="#4d8f95"/>
        </g>
      </g>
      <g id="Group_3116" data-name="Group 3116" transform="translate(15.482 7.833)">
        <g id="Group_3115" data-name="Group 3115">
          <path id="Path_2428" data-name="Path 2428" d="M277.714,627.631a.5.5,0,0,0-.637-.3c-.1.036-2.473.865-3.733-.811a8.169,8.169,0,0,1-1.161-2.216c-.278-.735-.54-1.43-1.409-1.5a.5.5,0,1,0-.081.992c.208.017.286.137.559.861a9.153,9.153,0,0,0,1.3,2.462,3.682,3.682,0,0,0,3.074,1.444,5.717,5.717,0,0,0,1.795-.295A.5.5,0,0,0,277.714,627.631Z" transform="translate(-270.236 -622.802)" fill="#4d8f95"/>
        </g>
      </g>
      <g id="Group_3118" data-name="Group 3118" transform="translate(12.532 0.907)">
        <g id="Group_3117" data-name="Group 3117">
          <path id="Path_2429" data-name="Path 2429" d="M267.941,616.246a.5.5,0,0,0-.5.5v24.638a.5.5,0,0,0,.995,0V616.744A.5.5,0,0,0,267.941,616.246Z" transform="translate(-267.444 -616.246)" fill="#4d8f95"/>
        </g>
      </g>
      <g id="Group_3120" data-name="Group 3120" transform="translate(14.042 4.702)">
        <g id="Group_3119" data-name="Group 3119">
          <path id="Path_2430" data-name="Path 2430" d="M271.5,620.33a.492.492,0,0,0-.5-.491.5.5,0,0,0-.49.5,9.288,9.288,0,0,1-1.523,5.1.5.5,0,0,0,.781.616A10.174,10.174,0,0,0,271.5,620.33Z" transform="translate(-268.873 -619.839)" fill="#4d8f95"/>
        </g>
      </g>
      <g id="Group_3122" data-name="Group 3122" transform="translate(14.392 20.432)">
        <g id="Group_3121" data-name="Group 3121">
          <path id="Path_2431" data-name="Path 2431" d="M272.491,634.731c-2.193,0-3.218,3-3.261,3.129a.5.5,0,0,0,.314.63.517.517,0,0,0,.158.025.5.5,0,0,0,.471-.339c.229-.682,1.092-2.451,2.318-2.451a.5.5,0,1,0,0-.994Z" transform="translate(-269.205 -634.731)" fill="#4d8f95"/>
        </g>
      </g>
      <g id="Group_3124" data-name="Group 3124" transform="translate(16.251 1.163)">
        <g id="Group_3123" data-name="Group 3123">
          <path id="Path_2432" data-name="Path 2432" d="M272.953,616.586a.5.5,0,0,0-.7.1l-1.194,1.6a.5.5,0,0,0,.1.7.49.49,0,0,0,.3.1.5.5,0,0,0,.4-.2l1.194-1.6A.5.5,0,0,0,272.953,616.586Z" transform="translate(-270.965 -616.488)" fill="#4d8f95"/>
        </g>
      </g>
      <g id="Group_3126" data-name="Group 3126" transform="translate(6.065 4.477)">
        <g id="Group_3125" data-name="Group 3125">
          <path id="Path_2433" data-name="Path 2433" d="M263.311,619.625a1.99,1.99,0,1,0,1.99,1.99A1.992,1.992,0,0,0,263.311,619.625Zm0,2.985a.995.995,0,1,1,.995-.995A1,1,0,0,1,263.311,622.61Z" transform="translate(-261.321 -619.625)" fill="#4d8f95"/>
        </g>
      </g>
      <g id="Group_3128" data-name="Group 3128" transform="translate(2.583 10.944)">
        <g id="Group_3127" data-name="Group 3127">
          <path id="Path_2434" data-name="Path 2434" d="M260.014,625.748a1.99,1.99,0,1,0,1.99,1.99A1.992,1.992,0,0,0,260.014,625.748Zm0,2.985a.995.995,0,1,1,.995-.995A1,1,0,0,1,260.014,628.733Z" transform="translate(-258.024 -625.748)" fill="#4d8f95"/>
        </g>
      </g>
      <g id="Group_3130" data-name="Group 3130" transform="translate(7.558 15.421)">
        <g id="Group_3129" data-name="Group 3129">
          <path id="Path_2435" data-name="Path 2435" d="M264.724,629.987a1.99,1.99,0,1,0,1.99,1.99A1.992,1.992,0,0,0,264.724,629.987Zm0,2.985a.995.995,0,1,1,.995-.995A1,1,0,0,1,264.724,632.972Z" transform="translate(-262.734 -629.987)" fill="#4d8f95"/>
        </g>
      </g>
      <g id="Group_3132" data-name="Group 3132" transform="translate(7.558 20.894)">
        <g id="Group_3131" data-name="Group 3131">
          <path id="Path_2436" data-name="Path 2436" d="M264.724,635.168a1.99,1.99,0,1,0,1.99,1.99A1.992,1.992,0,0,0,264.724,635.168Zm0,2.985a.995.995,0,1,1,.995-.995A1,1,0,0,1,264.724,638.153Z" transform="translate(-262.734 -635.168)" fill="#4d8f95"/>
        </g>
      </g>
      <g id="Group_3134" data-name="Group 3134" transform="translate(7.558 7.461)">
        <g id="Group_3133" data-name="Group 3133">
          <path id="Path_2437" data-name="Path 2437" d="M263.231,622.451a.5.5,0,0,0-.5.5v4.975a.5.5,0,1,0,.995,0v-4.975A.5.5,0,0,0,263.231,622.451Z" transform="translate(-262.734 -622.451)" fill="#4d8f95"/>
        </g>
      </g>
      <g id="Group_3136" data-name="Group 3136" transform="translate(5.568 12.436)">
        <g id="Group_3135" data-name="Group 3135">
          <path id="Path_2438" data-name="Path 2438" d="M264.83,627.161h-3.482a.5.5,0,1,0,0,.995h3.481a.5.5,0,0,0,0-.995Z" transform="translate(-260.85 -627.161)" fill="#4d8f95"/>
        </g>
      </g>
      <g id="Group_3138" data-name="Group 3138" transform="translate(9.05 12.436)">
        <g id="Group_3137" data-name="Group 3137">
          <path id="Path_2439" data-name="Path 2439" d="M264.645,627.161a.5.5,0,0,0-.5.5v2.985a.5.5,0,1,0,.995,0v-2.985A.5.5,0,0,0,264.645,627.161Z" transform="translate(-264.147 -627.161)" fill="#4d8f95"/>
        </g>
      </g>
      <g id="Group_3140" data-name="Group 3140" transform="translate(9.05 18.406)">
        <g id="Group_3139" data-name="Group 3139">
          <path id="Path_2440" data-name="Path 2440" d="M264.645,632.813a.5.5,0,0,0-.5.5V635.8a.5.5,0,1,0,.995,0v-2.487A.5.5,0,0,0,264.645,632.813Z" transform="translate(-264.147 -632.813)" fill="#4d8f95"/>
        </g>
      </g>
    </g>
    <g id="Group_3237" data-name="Group 3237" transform="translate(1267.216 527.452)">
      <path id="Path_2441" data-name="Path 2441" d="M967.459,578.515h-1.372v-1.54h4.06a.484.484,0,0,0,.494-.5v-4.913a2.375,2.375,0,0,0,0-4.619v-3.269a.484.484,0,0,0-.494-.494h-8.038v-1.077a2.027,2.027,0,1,0-1.026-.034v1.111h-7.909a.483.483,0,0,0-.354.142.479.479,0,0,0-.141.353v3.268a2.376,2.376,0,0,0,0,4.62v4.913a.484.484,0,0,0,.494.5h4.06v1.54h-1.373a5.314,5.314,0,0,0-5.3,5.291v3.7a.522.522,0,0,0,.536.5h21.123a.522.522,0,0,0,.537-.5v-3.7A5.314,5.314,0,0,0,967.459,578.515Zm-6.8-18.384a1,1,0,1,1,1,1A1,1,0,0,1,960.66,560.131Zm10.775,9.126a1.28,1.28,0,0,1-.793,1.227v-2.457A1.282,1.282,0,0,1,971.434,569.257Zm-19.549,0a1.281,1.281,0,0,1,.794-1.229v2.457A1.279,1.279,0,0,1,951.885,569.257Zm1.821-5.047h15.908v11.739H953.706Zm4.555,12.765h6.8v1.54h-6.8Zm8.275,10.007h-9.75V583.39h9.75Zm5.2,0h-4.169v-4.113a.535.535,0,0,0-.546-.5H956.3a.535.535,0,0,0-.545.5v4.113H951.59v-3.176a4.286,4.286,0,0,1,4.271-4.264h11.6a4.286,4.286,0,0,1,4.272,4.264Z" transform="translate(-950.563 -558.103)" fill="#445f88"/>
      <path id="Path_2442" data-name="Path 2442" d="M966.005,570.471a.514.514,0,0,0-.513-.513h-8.4a.514.514,0,0,0-.513.513v3.143a.514.514,0,0,0,.513.513h8.4a.514.514,0,0,0,.513-.513Zm-.962.513v.577H957.6v-.577Zm-7.441,2.181v-.578h7.441v.578Z" transform="translate(-950.225 -557.436)" fill="#445f88"/>
      <path id="Path_2443" data-name="Path 2443" d="M959.611,565.977a.513.513,0,0,0-.513-.513h-2.373a.513.513,0,0,0-.513.513v2.373a.513.513,0,0,0,.513.513H959.1a.514.514,0,0,0,.513-.513Zm-2.373.513h1.411v1.347h-1.411Z" transform="translate(-950.245 -557.689)" fill="#445f88"/>
      <path id="Path_2444" data-name="Path 2444" d="M966.048,565.977a.513.513,0,0,0-.513-.513h-2.373a.513.513,0,0,0-.513.513v2.373a.514.514,0,0,0,.513.513h2.373a.514.514,0,0,0,.513-.513Zm-2.373.513h1.411v1.347h-1.411Z" transform="translate(-949.883 -557.689)" fill="#445f88"/>
    </g>
    <path id="Path_2489" data-name="Path 2489" d="M91.409,134.593a.571.571,0,0,0,.571-.571v-4.683a.578.578,0,0,0-.285-.494l-4.89-2.832a.571.571,0,0,0-.643.048.576.576,0,0,1-.768-.043.569.569,0,0,1-.163-.5.574.574,0,0,0-.279-.581L80.6,122.421a2.176,2.176,0,0,0-1.711-.2,7.726,7.726,0,0,0-.287-4.2l-2.984-8.306a.571.571,0,0,0-.538-.378H66.674a.571.571,0,0,0-.538.378l-2.984,8.306a7.712,7.712,0,0,0,4.715,9.886,9.137,9.137,0,0,0,1.3.347v6.43a.82.82,0,0,1-.5.757l-2.633,1.1a1.079,1.079,0,0,0,.416,2.076h8.87a1.074,1.074,0,0,0,.767-.316,2.1,2.1,0,0,0,1.109.316H78.3a.572.572,0,0,0,.572-.571.578.578,0,0,1,1.156,0,.571.571,0,0,0,.571.571h9.275a2.111,2.111,0,0,0,2.109-2.109v-.192a.571.571,0,0,0-.571-.571.578.578,0,1,1,0-1.156ZM80.028,123.41l4.059,2.35a1.722,1.722,0,0,0,2.437,1.411l2.756,1.595H76.314a10.574,10.574,0,0,1,2.414-5.132A1.035,1.035,0,0,1,80.028,123.41Zm2.818,6.5a1.139,1.139,0,0,1-1.973,0Zm-10.251-1.655a9.052,9.052,0,0,0,1.293-.346,7.788,7.788,0,0,0,1.648-.8,11.71,11.71,0,0,0-.4,1.809l-.049.345a.664.664,0,0,0-.005.079v6.936l-1.979-.827a.82.82,0,0,1-.5-.757Zm-5.519-17.773h7.6l2.573,7.162h-1.46l-1.109-3.091a.572.572,0,1,0-1.077.387l.972,2.7H64.5Zm-2.831,12.413a6.582,6.582,0,0,1-.138-4.107H77.648a6.564,6.564,0,0,1-4.137,8.041,8.023,8.023,0,0,1-5.266,0A6.544,6.544,0,0,1,64.245,122.895Zm2.517,14.582L69.1,136.5a1.96,1.96,0,0,0,1.206-1.812V128.4c.19.012.38.017.57.017s.382-.005.574-.018v6.291a1.959,1.959,0,0,0,1.207,1.813l2.334.975Zm22.925-2.307a1.723,1.723,0,0,0,1.111,1.61.966.966,0,0,1-.927.7h-8.8a1.722,1.722,0,0,0-3.248,0h-.634a.966.966,0,0,1-.965-.965v-6.6h3.423a2.286,2.286,0,0,0,4.427,0h6.763v3.637A1.723,1.723,0,0,0,89.687,135.17Z" transform="translate(1485.759 246.522)" fill="#d79636"/>
    <path id="Path_2490" data-name="Path 2490" d="M499.64,209.833v0l-1.613,20.943a.587.587,0,0,0,.663.627l6.616-.882,3.359,5.766,0,.005a.588.588,0,0,0,.989.033L514.5,229.3l9.4-1.254a.588.588,0,0,0,.272-1.055l-23.594-17.574,0,0h0A.589.589,0,0,0,499.64,209.833Zm22.675,17.234-7.88,1.052-11.379-15.4Zm-8.869,1.692-3.321,4.818.624-4.209v-.007a.6.6,0,0,0-.059-.346l-6.657-12.99Zm-6.878,1.6,2.9-.388-.636,4.283ZM500.652,212l8.614,16.807-10.012,1.336Z" transform="translate(-166.692 29.5)" fill="#d79636"/>
    <g id="Group_3238" data-name="Group 3238" transform="translate(385.355 705.393)">
      <g id="Group_3154" data-name="Group 3154">
        <g id="Group_3153" data-name="Group 3153">
          <path id="Path_2456" data-name="Path 2456" d="M440.523,501.912H425.947a1.777,1.777,0,0,0-1.776,1.774v20.351a1.777,1.777,0,0,0,1.776,1.775h14.576a1.777,1.777,0,0,0,1.776-1.775V503.686A1.777,1.777,0,0,0,440.523,501.912Zm-4.716.952h2.237v2.653l-.763-.746a.476.476,0,0,0-.661-.005l-.814.774v-2.677Zm5.539,21.173a.823.823,0,0,1-.823.823H425.947a.823.823,0,0,1-.823-.823V503.686a.824.824,0,0,1,.823-.823h8.907v3.787a.476.476,0,0,0,.8.344l1.287-1.222,1.242,1.218a.477.477,0,0,0,.334.135.465.465,0,0,0,.184-.037.474.474,0,0,0,.292-.438v-3.787h1.527a.824.824,0,0,1,.823.823v20.351Z" transform="translate(-424.171 -501.912)" fill="#9a673c"/>
        </g>
      </g>
      <g id="Group_3156" data-name="Group 3156" transform="translate(1.636 6.674)">
        <g id="Group_3155" data-name="Group 3155">
          <path id="Path_2457" data-name="Path 2457" d="M426.2,508.231a.477.477,0,0,0-.476.476v14.616a.476.476,0,0,0,.953,0V508.707A.477.477,0,0,0,426.2,508.231Z" transform="translate(-425.72 -508.231)" fill="#9a673c"/>
        </g>
      </g>
      <g id="Group_3158" data-name="Group 3158" transform="translate(1.636 4.485)">
        <g id="Group_3157" data-name="Group 3157">
          <path id="Path_2458" data-name="Path 2458" d="M426.2,506.158a.476.476,0,0,0-.476.476v.475a.476.476,0,0,0,.953,0v-.475A.476.476,0,0,0,426.2,506.158Z" transform="translate(-425.72 -506.158)" fill="#9a673c"/>
        </g>
      </g>
      <g id="Group_3160" data-name="Group 3160" transform="translate(4.493 6.104)">
        <g id="Group_3159" data-name="Group 3159">
          <path id="Path_2459" data-name="Path 2459" d="M436.018,507.691h-6.046a1.549,1.549,0,0,0-1.547,1.547V510.7a1.549,1.549,0,0,0,1.547,1.547h6.046a1.549,1.549,0,0,0,1.547-1.547v-1.457A1.549,1.549,0,0,0,436.018,507.691Zm.6,3a.6.6,0,0,1-.6.595h-6.046a.6.6,0,0,1-.6-.595v-1.457a.6.6,0,0,1,.6-.6h6.046a.6.6,0,0,1,.6.6Z" transform="translate(-428.425 -507.691)" fill="#9a673c"/>
        </g>
      </g>
      <g id="Group_3162" data-name="Group 3162" transform="translate(6.208 7.912)">
        <g id="Group_3161" data-name="Group 3161">
          <path id="Path_2460" data-name="Path 2460" d="M435.285,509.4h-4.762a.476.476,0,0,0,0,.953h4.762a.476.476,0,1,0,0-.953Z" transform="translate(-430.048 -509.403)" fill="#9a673c"/>
        </g>
      </g>
    </g>
    <g id="Group_3239" data-name="Group 3239" transform="translate(201.574 325.686)">
      <path id="Path_2461" data-name="Path 2461" d="M1064.057,72.294a.465.465,0,0,0,.658,0l7.043-7.043,4.264,4.264a.465.465,0,0,0,.658,0l2.474-2.474a.465.465,0,0,0-.658-.658l-2.145,2.144-4.263-4.264a.465.465,0,0,0-.658,0l-7.043,7.043-1.089-1.088,8.46-8.46,4.264,4.264a.465.465,0,0,0,.658,0L1082.3,60.4a.465.465,0,0,0,0-.658l-.171-.172,2.747-.736-.736,2.747-.093-.093a.465.465,0,0,0-.658,0l-2.26,2.26a.465.465,0,0,0,.658.658l1.931-1.931.335.334a.465.465,0,0,0,.779-.209l1.152-4.3a.465.465,0,0,0-.569-.569l-4.3,1.153a.461.461,0,0,0-.328.328.466.466,0,0,0,.119.45l.413.412-4.961,4.961-4.264-4.264a.465.465,0,0,0-.658,0l-9.119,9.118a.465.465,0,0,0,0,.658Z" transform="translate(-1062.175 -57.714)" fill="#d79636"/>
      <path id="Path_2462" data-name="Path 2462" d="M1085.534,80.162h-.466V66.094a.465.465,0,0,0-.465-.465H1082a.465.465,0,0,0-.466.465V80.162h-1.07V71.646a.465.465,0,0,0-.466-.465h-2.606a.465.465,0,0,0-.465.465v8.515h-1.07V74.113a.466.466,0,0,0-.466-.465h-2.606a.465.465,0,0,0-.465.465v6.049h-1.071V71.646a.465.465,0,0,0-.465-.465h-2.606a.465.465,0,0,0-.466.465v8.515h-1.07V75.9a.466.466,0,0,0-.466-.466h-2.606a.466.466,0,0,0-.465.466v4.265h-.466a.465.465,0,0,0,0,.931h22.894a.465.465,0,0,0,0-.931Zm-21.5,0v-3.8h1.675v3.8Zm4.606,0v-8.05h1.675v8.05Zm4.607,0V74.579h1.675v5.583Zm4.606,0v-8.05h1.675v8.05Zm4.606,0V66.56h1.675v13.6Z" transform="translate(-1062.175 -57.269)" fill="#d79636"/>
      <path id="Path_2463" data-name="Path 2463" d="M1078.88,64.683a.465.465,0,1,0,.328-.136A.469.469,0,0,0,1078.88,64.683Z" transform="translate(-1061.243 -57.329)" fill="#d79636"/>
    </g>
    <path id="Path_2491" data-name="Path 2491" d="M888.122,635.965a8.522,8.522,0,1,1-11.839,2.254A8.52,8.52,0,0,1,888.122,635.965Z" transform="translate(414.856 53.558)" fill="#abd8e2"/>
    <path id="Path_2492" data-name="Path 2492" d="M888.122,635.965a8.522,8.522,0,1,1-11.839,2.254A8.52,8.52,0,0,1,888.122,635.965Z" transform="translate(535.398 -150.896)" fill="#abd8e2"/>
    <g id="Group_3240" data-name="Group 3240" transform="translate(728.215 251.596)">
      <g id="Group_3182" data-name="Group 3182" transform="translate(0)">
        <g id="Group_3181" data-name="Group 3181">
          <g id="Group_3180" data-name="Group 3180">
            <g id="Group_3179" data-name="Group 3179">
              <path id="Path_2468" data-name="Path 2468" d="M382.557,186.858a14.114,14.114,0,1,1-19.608,3.735A14.114,14.114,0,0,1,382.557,186.858Z" transform="translate(-360.505 -184.414)" fill="#faebee"/>
            </g>
          </g>
        </g>
      </g>
    </g>
  </g>
</svg>
